<svg width="160" height="56" viewBox="0 0 160 56" fill="none" xmlns="http://www.w3.org/2000/svg">
                <g clip-path="url(#clip0_263_14)">
                    <path d="M12.1355 2.03194C12.855 2.38768 13.9262 3.11942 14.3719 3.44082C19.8472 6.98558 31.1224 14.1527 32.4989 15.0424C34.6103 16.4073 34.9538 16.824 36.0199 18.4544C36.722 19.5281 36.9157 26.0354 37.0822 29.1405L0.258472 5.62253L6.88542 1.79646C9.27514 0.416754 11.2362 1.58726 12.1355 2.03194Z" fill="url(#paint0_linear_263_14)"></path>
                    <path d="M27.0129 54.3515C26.2934 53.9958 25.2222 53.264 24.7766 52.9426C19.3012 49.3979 8.02603 42.2308 6.64954 41.341C4.53812 39.9762 4.1946 39.5594 3.12851 37.929C2.42643 36.8553 2.23271 30.348 2.06626 27.243L38.8899 50.7609L32.263 54.587C29.8733 55.9667 27.9123 54.7962 27.0129 54.3515Z" fill="url(#paint1_linear_263_14)"></path>
                    <g filter="url(#filter0_i_263_14)">
                        <path d="M25.8491 16.7326C22.9241 9.7765 17.1183 5.29407 14.3853 3.44556C19.7343 6.86284 30.9484 14.033 33.0128 15.3754C35.5933 17.0533 36.1725 18.4417 36.4231 19.742C36.6736 21.0423 37.156 30.156 37.2879 31.636C37.4199 33.1159 37.1204 34.2336 36.2451 34.7389L28.2006 39.3834C27.5316 32.1139 27.2929 20.166 25.8491 16.7326Z" fill="url(#paint2_radial_263_14)"></path>
                    </g>
                    <path d="M25.9346 16.6966C23.6716 11.3149 19.692 7.41059 16.7331 5.0558C22.493 8.73715 31.1715 14.2886 32.9623 15.4531C34.2456 16.2876 35.0255 17.0463 35.5155 17.7531C36.0046 18.4588 36.2084 19.1177 36.3321 19.7596C36.3935 20.0783 36.4702 20.8855 36.5529 21.9481C36.6354 23.0078 36.7233 24.3147 36.8075 25.6276C36.8655 26.5333 36.9219 27.4423 36.9735 28.2748C37.0714 29.8543 37.1523 31.1587 37.1956 31.6442C37.3269 33.1164 37.0241 34.1821 36.1987 34.6586L28.2797 39.2307C28.0892 37.1255 27.9335 34.6435 27.7735 32.0941C27.6586 30.2636 27.5415 28.3982 27.4078 26.6125C27.2459 24.4495 27.0596 22.4047 26.8234 20.6854C26.5875 18.9686 26.3007 17.5673 25.9346 16.6966Z" stroke="url(#paint3_linear_263_14)" stroke-width="0.185427"></path>
                    <g filter="url(#filter1_i_263_14)">
                        <path d="M13.2993 39.6509C16.2243 46.6069 22.0301 51.0894 24.7631 52.9379C19.4141 49.5206 8.19997 42.3504 6.13561 41.0081C3.55515 39.3301 2.97587 37.9417 2.72532 36.6414C2.47477 35.3411 1.99242 26.2274 1.86046 24.7475C1.72851 23.2675 2.02799 22.1499 2.9033 21.6445L10.9478 17C11.6168 24.2696 11.8555 36.2174 13.2993 39.6509Z" fill="url(#paint4_radial_263_14)"></path>
                    </g>
                    <path d="M12.8384 39.8447C14.2947 43.308 16.448 46.1652 18.5914 48.3995C13.4465 45.1092 7.81083 41.501 6.40818 40.5889C5.15521 39.7741 4.41931 39.0498 3.96767 38.3983C3.52029 37.7529 3.33294 37.1522 3.21628 36.5468C3.16025 36.256 3.08496 35.4759 3.00153 34.4038C2.91929 33.3469 2.83156 32.0423 2.74739 30.7298C2.68975 29.831 2.63367 28.9265 2.58219 28.096C2.48386 26.5101 2.40227 25.1941 2.35849 24.7031C2.23024 23.2647 2.54754 22.4272 3.1533 22.0775L10.5186 17.8252C10.684 19.7817 10.824 22.0126 10.9677 24.3032C11.0826 26.1344 11.1998 28.0036 11.3344 29.8013C11.4965 31.9669 11.6835 34.0216 11.9215 35.7535C12.1576 37.4713 12.4496 38.92 12.8384 39.8447Z" stroke="url(#paint5_linear_263_14)"></path>
                </g>
                <g filter="url(#filter2_ii_263_14)">
                    <path d="M63.5493 22.2533V26.184C63.1582 26.1058 62.7671 26.0667 62.376 26.0667C61.2613 26.0667 60.3618 26.3893 59.6773 27.0347C58.9929 27.6604 58.6507 28.6969 58.6507 30.144V36.744H54.7493V22.312H58.5333V24.4533C59.2373 22.9476 60.6062 22.1947 62.64 22.1947C62.8551 22.1947 63.1582 22.2142 63.5493 22.2533Z" fill="black"></path>
                    <path d="M71.6772 18V22.312H74.5812V25.7733H71.6772V31.816C71.6772 32.4222 71.8141 32.8524 72.0878 33.1067C72.3616 33.3609 72.7918 33.488 73.3785 33.488C73.9065 33.488 74.3074 33.4489 74.5812 33.3707V36.5973C74.0141 36.832 73.2807 36.9493 72.3812 36.9493C70.9732 36.9493 69.8585 36.5582 69.0372 35.776C68.2158 34.9742 67.8052 33.8791 67.8052 32.4907V25.7733H65.1945V22.312H65.9278C66.6514 22.312 67.199 22.1067 67.5705 21.696C67.9616 21.2658 68.1572 20.7084 68.1572 20.024V18H71.6772Z" fill="black"></path>
                    <path d="M80.5973 27.8853H87.0506C87.0115 27.0836 86.7182 26.4089 86.1706 25.8613C85.6426 25.3138 84.8604 25.04 83.8239 25.04C82.8853 25.04 82.1226 25.3333 81.5359 25.92C80.9493 26.5067 80.6364 27.1618 80.5973 27.8853ZM87.4319 31.64L90.6879 32.608C90.2968 33.9378 89.5244 35.0329 88.3706 35.8933C87.2364 36.7538 85.8186 37.184 84.1173 37.184C82.0444 37.184 80.2844 36.4898 78.8373 35.1013C77.3902 33.6933 76.6666 31.816 76.6666 29.4693C76.6666 27.24 77.3706 25.4213 78.7786 24.0133C80.1866 22.5858 81.8488 21.872 83.7653 21.872C85.9946 21.872 87.735 22.5369 88.9866 23.8667C90.2577 25.1964 90.8933 27.0249 90.8933 29.352C90.8933 29.5084 90.8835 29.6844 90.8639 29.88C90.8639 30.0756 90.8639 30.232 90.8639 30.3493L90.8346 30.5547H80.5093C80.5484 31.4933 80.9199 32.2756 81.6239 32.9013C82.3279 33.5271 83.1688 33.84 84.1466 33.84C85.8088 33.84 86.9039 33.1067 87.4319 31.64Z" fill="black"></path>
                    <path d="M100.448 25.48C99.4117 25.48 98.5415 25.8418 97.8375 26.5653C97.1335 27.2889 96.7815 28.2764 96.7815 29.528C96.7815 30.7796 97.1335 31.7769 97.8375 32.52C98.561 33.2436 99.441 33.6053 100.477 33.6053C101.397 33.6053 102.13 33.3707 102.677 32.9013C103.225 32.4124 103.597 31.8356 103.792 31.1707L107.224 32.3147C106.872 33.6444 106.109 34.7884 104.936 35.7467C103.763 36.7049 102.277 37.184 100.477 37.184C98.3264 37.184 96.5175 36.4604 95.0508 35.0133C93.6037 33.5467 92.8801 31.7182 92.8801 29.528C92.8801 27.3182 93.5939 25.4898 95.0215 24.0427C96.4686 22.5956 98.2481 21.872 100.36 21.872C102.198 21.872 103.704 22.3511 104.877 23.3093C106.051 24.248 106.804 25.392 107.136 26.7413L103.645 27.9147C103.176 26.2916 102.11 25.48 100.448 25.48Z" fill="black"></path>
                    <path d="M113.822 32.5493C114.545 33.2729 115.416 33.6347 116.433 33.6347C117.449 33.6347 118.31 33.2729 119.014 32.5493C119.737 31.8258 120.099 30.8187 120.099 29.528C120.099 28.2373 119.737 27.2302 119.014 26.5067C118.31 25.7831 117.449 25.4213 116.433 25.4213C115.416 25.4213 114.545 25.7831 113.822 26.5067C113.118 27.2302 112.766 28.2373 112.766 29.528C112.766 30.8187 113.118 31.8258 113.822 32.5493ZM111.006 24.0427C112.453 22.5956 114.262 21.872 116.433 21.872C118.603 21.872 120.402 22.5956 121.83 24.0427C123.277 25.4898 124.001 27.3182 124.001 29.528C124.001 31.7378 123.277 33.5662 121.83 35.0133C120.402 36.4604 118.603 37.184 116.433 37.184C114.262 37.184 112.453 36.4604 111.006 35.0133C109.578 33.5662 108.865 31.7378 108.865 29.528C108.865 27.3182 109.578 25.4898 111.006 24.0427Z" fill="black"></path>
                </g>
                <defs>
                    <filter id="filter0_i_263_14" x="13.6436" y="2.70385" width="23.6741" height="36.6796" filterUnits="userSpaceOnUse" color-interpolation-filters="sRGB">
                        <feFlood flood-opacity="0" result="BackgroundImageFix"></feFlood>
                        <feBlend mode="normal" in="SourceGraphic" in2="BackgroundImageFix" result="shape"></feBlend>
                        <feColorMatrix in="SourceAlpha" type="matrix" values="0 0 0 0 0 0 0 0 0 0 0 0 0 0 0 0 0 0 127 0" result="hardAlpha"></feColorMatrix>
                        <feOffset dx="-0.741709" dy="-0.741709"></feOffset>
                        <feGaussianBlur stdDeviation="1.11256"></feGaussianBlur>
                        <feComposite in2="hardAlpha" operator="arithmetic" k2="-1" k3="1"></feComposite>
                        <feColorMatrix type="matrix" values="0 0 0 0 1 0 0 0 0 1 0 0 0 0 1 0 0 0 0.12 0"></feColorMatrix>
                        <feBlend mode="normal" in2="shape" result="effect1_innerShadow_263_14"></feBlend>
                    </filter>
                    <filter id="filter1_i_263_14" x="1.83069" y="17" width="26.9324" height="39.9379" filterUnits="userSpaceOnUse" color-interpolation-filters="sRGB">
                        <feFlood flood-opacity="0" result="BackgroundImageFix"></feFlood>
                        <feBlend mode="normal" in="SourceGraphic" in2="BackgroundImageFix" result="shape"></feBlend>
                        <feColorMatrix in="SourceAlpha" type="matrix" values="0 0 0 0 0 0 0 0 0 0 0 0 0 0 0 0 0 0 127 0" result="hardAlpha"></feColorMatrix>
                        <feOffset dx="4" dy="4"></feOffset>
                        <feGaussianBlur stdDeviation="6"></feGaussianBlur>
                        <feComposite in2="hardAlpha" operator="arithmetic" k2="-1" k3="1"></feComposite>
                        <feColorMatrix type="matrix" values="0 0 0 0 1 0 0 0 0 1 0 0 0 0 1 0 0 0 0.12 0"></feColorMatrix>
                        <feBlend mode="normal" in2="shape" result="effect1_innerShadow_263_14"></feBlend>
                    </filter>
                    <filter id="filter2_ii_263_14" x="53.6916" y="16.9423" width="71.3666" height="21.2994" filterUnits="userSpaceOnUse" color-interpolation-filters="sRGB">
                        <feFlood flood-opacity="0" result="BackgroundImageFix"></feFlood>
                        <feBlend mode="normal" in="SourceGraphic" in2="BackgroundImageFix" result="shape"></feBlend>
                        <feColorMatrix in="SourceAlpha" type="matrix" values="0 0 0 0 0 0 0 0 0 0 0 0 0 0 0 0 0 0 127 0" result="hardAlpha"></feColorMatrix>
                        <feOffset dx="-1.05768" dy="-1.05768"></feOffset>
                        <feGaussianBlur stdDeviation="1.05768"></feGaussianBlur>
                        <feComposite in2="hardAlpha" operator="arithmetic" k2="-1" k3="1"></feComposite>
                        <feColorMatrix type="matrix" values="0 0 0 0 0.321569 0 0 0 0 0.0901961 0 0 0 0 0.784314 0 0 0 0.24 0"></feColorMatrix>
                        <feBlend mode="normal" in2="shape" result="effect1_innerShadow_263_14"></feBlend>
                        <feColorMatrix in="SourceAlpha" type="matrix" values="0 0 0 0 0 0 0 0 0 0 0 0 0 0 0 0 0 0 127 0" result="hardAlpha"></feColorMatrix>
                        <feOffset dx="1.05768" dy="1.05768"></feOffset>
                        <feGaussianBlur stdDeviation="1.05768"></feGaussianBlur>
                        <feComposite in2="hardAlpha" operator="arithmetic" k2="-1" k3="1"></feComposite>
                        <feColorMatrix type="matrix" values="0 0 0 0 0.14902 0 0 0 0 0.741176 0 0 0 0 0.423529 0 0 0 0.08 0"></feColorMatrix>
                        <feBlend mode="normal" in2="effect1_innerShadow_263_14" result="effect2_innerShadow_263_14"></feBlend>
                    </filter>
                    <linearGradient id="paint0_linear_263_14" x1="1.28193" y1="5.03164" x2="30.6461" y2="29.1903" gradientUnits="userSpaceOnUse">
                        <stop stop-color="#7733FF"></stop>
                        <stop offset="1" stop-color="#330099"></stop>
                    </linearGradient>
                    <linearGradient id="paint1_linear_263_14" x1="37.8665" y1="51.3518" x2="8.50234" y2="27.1931" gradientUnits="userSpaceOnUse">
                        <stop stop-color="#FE7919"></stop>
                        <stop offset="1" stop-color="#B33C00"></stop>
                    </linearGradient>
                    <radialGradient id="paint2_radial_263_14" cx="0" cy="0" r="1" gradientUnits="userSpaceOnUse" gradientTransform="translate(24.5734 11.263) rotate(63.2379) scale(40.5237 28.815)">
                        <stop stop-color="#7C4DFF"></stop>
                        <stop offset="1" stop-color="#3F1F99"></stop>
                    </radialGradient>
                    <linearGradient id="paint3_linear_263_14" x1="16.6591" y1="2.13278" x2="35.6745" y2="35.0684" gradientUnits="userSpaceOnUse">
                        <stop stop-color="white" stop-opacity="0.12"></stop>
                        <stop offset="1" stop-color="white" stop-opacity="0"></stop>
                    </linearGradient>
                    <radialGradient id="paint4_radial_263_14" cx="0" cy="0" r="1" gradientUnits="userSpaceOnUse" gradientTransform="translate(14.575 45.1204) rotate(-117.839) scale(38.0836 27.0799)">
                        <stop stop-color="#FF8214"></stop>
                        <stop offset="1" stop-color="#CC4400"></stop>
                    </radialGradient>
                    <linearGradient id="paint5_linear_263_14" x1="22.4893" y1="54.2507" x2="3.47391" y2="21.3151" gradientUnits="userSpaceOnUse">
                        <stop stop-color="white" stop-opacity="0"></stop>
                        <stop offset="1" stop-color="white" stop-opacity="0.08"></stop>
                    </linearGradient>
                    <clipPath id="clip0_263_14">
                        <rect width="38.6667" height="56" fill="white"></rect>
                    </clipPath>
                </defs>
            </svg>